<svg width="62" height="198" viewBox="0 0 62 198" fill="none" xmlns="http://www.w3.org/2000/svg">
<path d="M61.9899 19.6966C44.5991 82.0858 51.7675 127.48 52.0155 128.991L52.0248 129.06C52.1458 130.349 51.4575 129.855 51.4575 129.855L35.682 120.653C34.5255 119.977 33.6155 119.735 33.9581 121.382C33.9581 121.382 36.1657 135.986 40.37 151.648C41.7714 156.868 43.3961 162.207 45.2347 167.161C45.599 168.051 45.1463 168.509 44.2286 168.192L44.1573 168.171L43.6736 168.048L43.5852 168.021L31.7629 163.923C31.4978 163.832 31.2452 164.087 31.3521 164.341C35.6494 174.59 35.389 175.183 44.4968 194.458L45.4781 196.848C45.9664 198.035 45.4905 198.359 44.4239 197.565C44.4239 197.565 42.3419 196.016 41.6319 195.386C40.9219 194.754 18.1734 176.567 6.36195 144.992L4.50011 139.375C4.09704 138.159 4.56678 137.894 5.54188 138.783C5.54188 138.783 8.2223 141.225 9.23308 142.168C10.1244 142.997 13.0637 145.392 15.2713 146.677C15.541 146.834 15.8619 146.566 15.7395 146.284C13.011 139.94 -3.77672 98.6901 0.779494 54.1573L0.787244 54.0927L1.47091 49.7714C1.67089 48.5133 2.20728 48.4637 2.66306 49.6632L4.56832 54.6699C5.0241 55.8694 5.3295 55.8107 5.24424 54.5421C5.24424 54.5421 3.64282 30.5006 19.1035 0.176195C19.1826 0.0213797 19.3748 -0.0432521 19.5361 0.0303981L61.8132 19.3283C61.9558 19.3929 62.0304 19.5492 61.9883 19.698L61.9899 19.6966Z" fill="url(#paint0_linear_248_80)"/>
<defs>
<linearGradient id="paint0_linear_248_80" x1="31.0018" y1="198.001" x2="31.0018" y2="0.000330449" gradientUnits="userSpaceOnUse">
<stop stop-color="#FFBE0B"/>
<stop offset="0.37" stop-color="#FF7200"/>
<stop offset="0.77" stop-color="#D6006E"/>
</linearGradient>
</defs>
</svg>
