<svg width="255" height="254" viewBox="0 0 255 254" fill="none" xmlns="http://www.w3.org/2000/svg">
<path d="M130.867 195.665L118.679 174.571C118.094 173.517 117.039 172.931 115.867 172.931H77.311C76.1391 172.931 75.0844 173.517 74.4985 174.571L65.8267 189.689H73.3267L79.3033 179.493H114.109L123.484 195.783H130.867V195.665Z" fill="black"/>
<path d="M210.79 95.8192L191.571 129.218C190.985 130.273 190.985 131.445 191.571 132.382L210.79 165.781C211.376 166.836 212.431 167.422 213.602 167.422H254.033V160.977H215.477L198.134 130.86L215.595 100.743H254.151V94.2975H213.72C212.431 94.1803 211.376 94.7645 210.79 95.8192Z" fill="black"/>
<path d="M52 189.686H59.5L69.8125 171.756C70.3985 170.702 70.3985 169.53 69.8125 168.475L48.0157 130.624L72.2734 88.672H115.866C117.038 88.672 118.093 88.0861 118.679 87.0314L140.476 49.2974H183.952C185.124 49.2974 186.178 48.7114 186.764 47.6567L196.022 31.7192H188.522L182.077 42.8519H138.601C137.429 42.8519 136.374 43.4379 135.788 44.4925L113.991 82.2266H70.3984C69.2266 82.2266 68.1719 82.8125 67.5859 83.8672L41.4532 129.218C40.8673 130.273 40.8673 131.445 41.4532 132.5L63.25 170.351L52 189.686Z" fill="black"/>
<path d="M221.686 3.35938H254.029V9.80457H221.686V3.35938Z" fill="black"/>
<path d="M73.093 229.181H65.7103L76.2571 247.58L81.8821 244.415L73.093 229.181Z" fill="black"/>
<path d="M59.266 229.181H51.8833L65.9458 253.556L71.4535 250.392L59.266 229.181Z" fill="black"/>
<path d="M186.766 135.194C186.18 134.139 185.125 133.553 183.954 133.553H145.398C144.226 133.553 143.171 134.139 142.585 135.194L123.249 168.593C122.663 169.648 122.663 170.819 123.249 171.874L137.077 195.781H144.577L129.812 170.234L147.273 140H182.079L203.875 177.734C204.461 178.789 205.516 179.374 206.688 179.374H254.031V172.929H208.563L186.766 135.194Z" fill="black"/>
<path d="M221.686 15.4312H254.029V21.8764H221.686V15.4312Z" fill="black"/>
<path d="M198.016 51.9921L209.735 31.7188H202.235L191.453 50.3514C190.867 51.4061 190.867 52.578 191.453 53.6328L210.789 87.0318C211.375 88.0865 212.43 88.6725 213.602 88.6725H254.033V82.2273H215.477L198.016 51.9921Z" fill="black"/>
<path d="M115.867 94.1812H77.311C76.1391 94.1812 75.0844 94.7671 74.4985 95.8218L55.2799 129.221C54.694 130.275 54.694 131.447 55.2799 132.502L74.4985 165.901C75.0844 166.956 76.1391 167.542 77.311 167.542H115.867C117.039 167.542 118.094 166.956 118.68 165.901L137.898 132.502C138.484 131.448 138.484 130.276 137.898 129.221L118.562 95.8218C118.093 94.7671 117.039 94.1812 115.867 94.1812ZM113.992 160.979H79.186L61.7251 130.862L79.186 100.745H113.992L131.453 130.862L113.992 160.979Z" fill="black"/>
<path d="M145.516 128.048H184.072C185.244 128.048 186.299 127.462 186.885 126.407L206.103 93.0082C206.689 91.9536 206.689 90.7817 206.103 89.7268L186.767 56.4448C186.181 55.3902 185.127 54.8042 183.955 54.8042H145.399C144.227 54.8042 143.172 55.3901 142.586 56.4448L123.485 89.8438C122.899 90.8985 122.899 92.0704 123.485 93.1252L142.821 126.524C143.289 127.462 144.344 128.048 145.516 128.048ZM147.391 61.2499H182.197L199.658 91.3669L182.197 121.484H147.391L129.93 91.3669L147.391 61.2499Z" fill="black"/>
<path d="M0.906372 211.601V218.046H35.0074V211.601H0.906372Z" fill="black"/>
<path d="M1.25769 199.649H35.0077V206.094H1.25769V199.649Z" fill="black"/>
<path d="M84.226 149.024H108.953V155.469H84.226V149.024Z" fill="black"/>
<path d="M69.1331 129.206L81.4964 107.796L87.0746 111.018L74.7113 132.429L69.1331 129.206Z" fill="black"/>
<path d="M195.907 6.64081H196.024C197.313 9.45331 206.806 24.6876 206.806 24.6876H213.368V0.195312H207.626C207.626 0.195312 207.743 14.3751 208.094 17.5389H207.977C206.688 14.7264 197.665 0.195312 197.665 0.195312H190.282V24.6876H196.024C196.259 24.6876 196.141 9.92191 195.907 6.64081Z" fill="black"/>
<path d="M136.258 203.282C128.055 203.282 122.664 208.79 122.664 216.056C122.664 223.087 127.586 228.595 135.789 228.595C143.993 228.595 149.5 223.79 149.5 215.704C149.5 208.907 144.813 203.282 136.258 203.282ZM136.141 224.142C131.922 224.142 129.344 220.743 129.344 215.938C129.344 211.134 131.805 207.618 136.141 207.618C140.477 207.618 142.821 211.368 142.821 215.821C142.821 220.626 140.477 224.142 136.141 224.142Z" fill="black"/>
<path d="M65.593 221.564L64.6555 217.228C63.3664 217.697 61.2571 218.049 59.3821 218.049C53.7571 218.049 50.4757 215.002 50.4757 210.08C50.4757 204.572 54.343 201.994 59.2648 201.994C61.4913 201.994 63.3664 202.463 64.5382 202.932L65.8272 198.596C64.6554 198.01 62.1945 197.541 59.0304 197.541C50.5929 197.541 43.7961 202.111 43.7961 210.549C43.7961 217.58 48.7179 222.854 58.3275 222.854C61.8432 222.619 64.4209 222.033 65.593 221.564Z" fill="black"/>
</svg>
