<svg width="72" height="80" viewBox="0 0 72 80" fill="none" xmlns="http://www.w3.org/2000/svg">
<path d="M42.785 55.8118C42.7693 55.7415 42.742 55.6751 42.7107 55.6126C42.6717 55.4837 42.5975 55.3743 42.492 55.2923C42.4529 55.2493 42.41 55.2102 42.3631 55.1751C42.3006 55.1399 42.2342 55.1087 42.1639 55.0852C42.1131 55.0579 42.0584 55.0384 41.9998 55.0227C41.9803 55.0227 41.9646 55.0071 41.9451 55.0032C29.5001 53.1243 23.1291 45.9251 22.4681 32.9912C22.4603 32.9482 22.4486 32.9053 22.433 32.8623C22.4212 32.7842 22.4017 32.706 22.3705 32.6318C22.3509 32.5967 22.3314 32.5615 22.3119 32.5303C22.2611 32.4482 22.2025 32.3701 22.1322 32.3037C22.1087 32.2803 22.0814 32.2607 22.054 32.2451C21.9837 32.1865 21.9056 32.1396 21.8236 32.1045C21.7142 32.0771 21.6087 32.0498 21.4994 32.0225C21.4837 32.0264 21.4642 32.0264 21.4486 32.0303C21.4329 32.0264 21.4134 32.0225 21.3978 32.0225C21.3509 32.0303 21.308 32.042 21.2611 32.0576C21.1947 32.0654 21.1283 32.0811 21.0619 32.1084C20.9915 32.1396 20.9251 32.1826 20.8626 32.2295C20.8236 32.2529 20.7884 32.2803 20.7533 32.3115C20.6947 32.3701 20.64 32.4365 20.597 32.5107C20.5697 32.5498 20.5462 32.5889 20.5228 32.6318C20.4954 32.7021 20.4759 32.7764 20.4642 32.8545C20.4486 32.8975 20.4368 32.9404 20.429 32.9873C19.7689 45.9253 13.3978 53.1243 0.952033 54.9993C0.932502 54.9993 0.916877 55.0149 0.897346 55.0188C0.838752 55.0345 0.780157 55.0579 0.725467 55.0813C0.659061 55.1048 0.596557 55.136 0.534057 55.1751C0.487182 55.2102 0.444213 55.2493 0.405147 55.2962C0.354366 55.3391 0.30749 55.3899 0.264526 55.4446C0.233276 55.4954 0.209839 55.5501 0.186401 55.6087C0.155151 55.6751 0.131714 55.7415 0.112183 55.8079C0.112183 55.8235 0.0965576 55.8391 0.0965576 55.8548V55.8587C0.0965576 55.9095 0.0965571 55.9602 0.10437 56.011C0.0965571 56.0618 0.0965576 56.1126 0.0965576 56.1634C0.0965576 56.1829 0.112183 56.1946 0.112183 56.2141C0.127808 56.2688 0.147339 56.3196 0.16687 56.3704C0.190307 56.4368 0.221557 56.5032 0.26062 56.5618C0.29187 56.6048 0.32312 56.6477 0.358276 56.6829C0.405151 56.7376 0.459836 56.7844 0.518436 56.8274C0.561405 56.8587 0.60828 56.886 0.655156 56.9094C0.721562 56.9407 0.791876 56.968 0.862186 56.9876C0.893436 56.9954 0.92078 57.0149 0.95203 57.0188C13.397 58.8977 19.768 66.1008 20.429 79.0308C20.4368 79.0855 20.4525 79.1363 20.4681 79.1871C20.4837 79.316 20.5345 79.441 20.6204 79.5425C20.6478 79.5933 20.6829 79.6402 20.7181 79.6871C20.7689 79.7339 20.8236 79.773 20.8821 79.8121C20.929 79.8472 20.9798 79.8824 21.0306 79.9097C21.1009 79.9371 21.1712 79.9566 21.2454 79.9644C21.2962 79.98 21.347 79.9918 21.3978 79.9996H21.4993C21.5501 79.9918 21.597 79.98 21.6478 79.9605C21.7181 79.9527 21.7923 79.9332 21.8587 79.9058C21.9134 79.8785 21.9642 79.8433 22.011 79.8082C22.0696 79.773 22.1243 79.73 22.1751 79.6832C22.2142 79.6402 22.2493 79.5894 22.2767 79.5386C22.3157 79.4839 22.3509 79.4254 22.3782 79.3668C22.4056 79.2535 22.4329 79.1402 22.4642 79.0269C23.1282 66.1009 29.4994 58.8979 41.9442 57.0189C41.9754 57.0189 42.0028 56.9955 42.034 56.9877C42.1082 56.972 42.1785 56.9447 42.241 56.9095C42.2918 56.89 42.3387 56.8627 42.3817 56.8314C42.4363 56.7885 42.491 56.7416 42.5379 56.6869C42.5731 56.6478 42.6082 56.6088 42.6395 56.5658C42.6746 56.5033 42.7059 56.4408 42.7293 56.3705C42.7528 56.3197 42.7684 56.2689 42.784 56.2182C42.784 56.1986 42.7996 56.183 42.8035 56.1674V56.1635C42.8035 56.1127 42.7996 56.0619 42.7957 56.0111C42.7996 55.9603 42.8035 55.9096 42.8035 55.8588C42.7996 55.8432 42.7889 55.8274 42.785 55.8118ZM21.449 71.9998C19.3396 63.8006 14.1248 58.4448 5.86295 56.0158C14.1247 53.5861 19.34 48.2306 21.449 40.0318C23.5584 48.231 28.7732 53.5868 37.035 56.0158C28.7733 58.4416 23.558 63.801 21.449 71.9998Z" fill="black"/>
<path d="M71.887 17.246C71.8675 17.1796 71.8441 17.1092 71.8128 17.0467C71.7894 16.9881 71.7659 16.9335 71.7347 16.8827C71.6917 16.8241 71.6448 16.7733 71.5902 16.7264C71.5511 16.6835 71.512 16.6483 71.4691 16.6131C71.4027 16.5741 71.3323 16.5389 71.2581 16.5155C71.2073 16.4921 71.1605 16.4725 71.1058 16.4608C71.0824 16.4608 71.0667 16.4413 71.0433 16.4374C62.3011 15.1171 57.8243 10.0585 57.3593 0.964366H57.3632C57.3554 0.921397 57.3437 0.878428 57.328 0.839366C57.3163 0.757334 57.2968 0.679206 57.2655 0.604986C57.246 0.573736 57.2265 0.538579 57.203 0.507329C57.1562 0.421392 57.0976 0.343269 57.0233 0.276859C57.0038 0.257327 56.9804 0.245609 56.9569 0.226077C56.8827 0.163577 56.8007 0.116707 56.7108 0.0776367C56.6562 0.0620117 56.6015 0.046387 56.5468 0.034668C56.4999 0.019043 56.4491 0.00732372 56.3983 -0.000488281C56.3788 -0.000488281 56.3632 0.00732422 56.3437 0.00732422C56.328 0.00732422 56.3085 -0.000488281 56.289 -0.000488281C56.246 0.00732372 56.1991 0.019043 56.1523 0.034668C56.0819 0.046387 56.0116 0.0620124 55.9452 0.0893564C55.8905 0.1167 55.8359 0.14795 55.789 0.183106C55.7304 0.218262 55.6757 0.257324 55.6288 0.304196C55.5859 0.35107 55.5468 0.401852 55.5116 0.456536C55.4726 0.511224 55.4413 0.565916 55.4101 0.624506C55.3866 0.687006 55.371 0.753416 55.3593 0.823726C55.3437 0.870601 55.3319 0.917476 55.3241 0.968256C54.8593 10.0581 50.3827 15.1203 41.6401 16.4413C41.6167 16.4413 41.6011 16.4608 41.5776 16.4647V16.4608C41.5308 16.4764 41.48 16.492 41.4331 16.5155C41.3042 16.5467 41.1909 16.6209 41.105 16.7225C40.9956 16.8045 40.9175 16.9178 40.8745 17.0467C40.8433 17.1092 40.8198 17.1756 40.8003 17.2459C40.8003 17.2616 40.7847 17.2772 40.7808 17.2928H40.7847C40.7808 17.3436 40.7847 17.3944 40.7925 17.4452C40.7847 17.4959 40.7808 17.5467 40.7847 17.5975C40.7847 17.617 40.8003 17.6287 40.8042 17.6483H40.8003C40.8159 17.703 40.8315 17.7538 40.855 17.8045C40.8784 17.8748 40.9097 17.9373 40.9487 17.9998C40.9761 18.0428 41.0112 18.0819 41.0464 18.1209C41.0933 18.1756 41.1479 18.2225 41.2026 18.2655C41.2495 18.2967 41.2925 18.3241 41.3433 18.3475C41.4097 18.3787 41.48 18.4061 41.5503 18.4217C41.5815 18.4295 41.6089 18.4491 41.6401 18.453C50.3823 19.7733 54.8591 24.8319 55.3241 33.922V33.9259C55.3319 33.9766 55.3437 34.0313 55.3632 34.0782C55.371 34.1407 55.3866 34.2032 55.4062 34.2618C55.4374 34.3243 55.4726 34.3829 55.5116 34.4376C55.5429 34.4884 55.5741 34.5352 55.6132 34.5821C55.664 34.629 55.7187 34.668 55.7772 34.7032C55.8241 34.7423 55.871 34.7735 55.9257 34.8048C55.9921 34.8282 56.0663 34.8477 56.1405 34.8594C56.1874 34.8751 56.2343 34.8868 56.2851 34.8946H56.3866C56.4374 34.8868 56.4843 34.8751 56.5311 34.8594C56.6054 34.8477 56.6757 34.8282 56.746 34.8048C56.7968 34.7774 56.8475 34.7423 56.8944 34.7032C57.1249 34.5743 57.2811 34.3438 57.3124 34.0782C57.3319 34.0313 57.3436 33.9766 57.3515 33.9259C57.8163 24.8361 62.2929 19.7739 71.0355 18.4569C71.0667 18.4569 71.0941 18.4334 71.1253 18.4256L71.1292 18.4217C71.1995 18.4061 71.2698 18.3787 71.3362 18.3475C71.3831 18.324 71.43 18.2967 71.473 18.2655C71.5316 18.2225 71.5823 18.1756 71.6292 18.1209C71.6683 18.0819 71.6995 18.0428 71.7308 17.9998C71.7659 17.9373 71.7972 17.8748 71.8206 17.8045C71.8441 17.7537 71.8636 17.703 71.8753 17.6483C71.8753 17.6287 71.8909 17.617 71.8909 17.5975H71.8948C71.8948 17.5467 71.8909 17.4959 71.887 17.4451C71.8948 17.3983 71.8987 17.3475 71.8987 17.3006C71.8987 17.2772 71.887 17.2655 71.887 17.246ZM56.344 27.84C54.9182 22.8673 51.0706 18.9533 46.121 17.445C51.0702 15.9372 54.9179 12.027 56.344 7.04996C57.7659 12.0266 61.6174 15.9445 66.567 17.452C61.6178 18.9559 57.7701 22.8671 56.344 27.84Z" fill="black"/>
<path d="M65.715 52.0659C65.6955 51.9995 65.6721 51.9331 65.6408 51.8667C65.6213 51.8081 65.5939 51.7534 65.5627 51.6987C65.5197 51.648 65.4768 51.5972 65.426 51.5503C65.383 51.5073 65.34 51.4683 65.2932 51.4292C65.2346 51.394 65.1682 51.3628 65.1018 51.3394C65.0471 51.312 64.9885 51.2925 64.9299 51.2769C64.9104 51.2769 64.8947 51.2612 64.8752 51.2573C60.0744 50.5347 57.6174 47.7495 57.3635 42.7573C57.3557 42.7144 57.344 42.6714 57.3283 42.6284C57.3166 42.5503 57.2971 42.4722 57.2658 42.398C57.2463 42.3628 57.2268 42.3276 57.1994 42.2925C57.1565 42.2104 57.0979 42.1362 57.0315 42.0737C57.0002 42.0464 56.9651 42.0229 56.9299 41.9995C56.8674 41.9487 56.7971 41.9058 56.7229 41.8745C56.6565 41.8472 56.5901 41.8315 56.5198 41.8198C56.4807 41.8081 56.4377 41.7964 56.3948 41.7886C56.3791 41.7925 56.3596 41.7925 56.344 41.7964C56.3244 41.7925 56.3088 41.7925 56.2932 41.7886C56.2541 41.7964 56.2151 41.8081 56.176 41.8198C56.094 41.8276 56.0119 41.8511 55.9338 41.8823C55.8948 41.9019 55.8557 41.9253 55.8166 41.9526C55.6916 42.0151 55.5862 42.1167 55.5158 42.2378C55.4299 42.3433 55.3752 42.4722 55.3596 42.6089C55.344 42.6597 55.3322 42.7065 55.3205 42.7573C55.0666 47.7573 52.6057 50.5346 47.8088 51.2573C47.7893 51.2573 47.7737 51.273 47.7502 51.2769H47.7541C47.6956 51.2925 47.6409 51.312 47.5901 51.3355C47.5198 51.3589 47.4534 51.394 47.3909 51.4331C47.344 51.4644 47.3049 51.5034 47.2659 51.5464C47.2112 51.5933 47.1643 51.644 47.1213 51.7026C47.0588 51.8159 47.0081 51.937 46.969 52.0659C46.969 52.0815 46.9534 52.0972 46.9495 52.1128H46.9534C46.9495 52.1636 46.9534 52.2144 46.9612 52.2651C46.9534 52.3159 46.9495 52.3667 46.9534 52.4175C46.9534 52.437 46.969 52.4526 46.9729 52.4683H46.969C46.9846 52.5229 47.0041 52.5737 47.0237 52.6245C47.0471 52.6948 47.0784 52.7573 47.1174 52.8198C47.1448 52.8628 47.1799 52.9018 47.2151 52.9409C47.262 52.9956 47.3166 53.0425 47.3713 53.0854C47.4182 53.1167 47.4612 53.1401 47.512 53.1636C47.5784 53.1987 47.6487 53.2261 47.719 53.2417C47.7502 53.2495 47.7776 53.269 47.8088 53.2729C52.6096 53.9956 55.0666 56.7768 55.3205 61.7729C55.3283 61.8276 55.344 61.8784 55.3596 61.9292C55.3674 61.9917 55.383 62.0542 55.4065 62.1128C55.4729 62.2964 55.6057 62.4526 55.7776 62.5542C55.8791 62.644 56.008 62.6948 56.1408 62.7026C56.1877 62.7183 56.2385 62.7339 56.2893 62.7417H56.3908H56.3869C56.4377 62.7339 56.4885 62.7222 56.5354 62.7026C56.6096 62.6948 56.6799 62.6753 56.7463 62.6479C56.801 62.6206 56.8518 62.5893 56.8987 62.5503C56.9572 62.5151 57.0119 62.4761 57.0627 62.4292C57.1018 62.3823 57.1369 62.3354 57.1682 62.2808C57.2072 62.2261 57.2385 62.1714 57.2697 62.1089C57.2893 62.0503 57.3049 61.9878 57.3127 61.9253C57.3322 61.8745 57.344 61.8237 57.3518 61.7729C57.6096 56.7729 60.0666 53.9956 64.8635 53.2729C64.8947 53.2729 64.9221 53.2495 64.9533 53.2417V53.2378C65.0275 53.2222 65.0978 53.1987 65.1643 53.1636C65.2111 53.1401 65.258 53.1128 65.301 53.0815C65.3596 53.0386 65.4104 52.9917 65.4572 52.937C65.4963 52.9018 65.5275 52.8589 65.5588 52.8159C65.5939 52.7573 65.6252 52.6909 65.6486 52.6245C65.6721 52.5737 65.6916 52.519 65.7033 52.4683C65.7033 52.4487 65.7189 52.437 65.7189 52.4175L65.7229 52.4136C65.7229 52.3628 65.7189 52.312 65.715 52.2651C65.7189 52.2143 65.7229 52.1597 65.7229 52.1089C65.7307 52.1011 65.7189 52.0855 65.715 52.0659ZM56.3439 56.9839C55.4455 54.8667 53.7658 53.1753 51.6525 52.2691C53.7658 51.359 55.4455 49.6714 56.3439 47.5543C57.2424 49.6715 58.922 51.359 61.0353 52.2691C58.922 53.1754 57.2423 54.8668 56.3439 56.9839Z" fill="black"/>
<path d="M41.1519 26.7071C41.1363 26.6368 41.1129 26.5704 41.0816 26.5079C41.0582 26.4493 41.0308 26.3946 40.9996 26.3438C40.9566 26.2852 40.9058 26.2344 40.8551 26.1836C40.816 26.1446 40.773 26.1055 40.7301 26.0743C40.6676 26.0313 40.5973 26 40.5269 25.9727C40.4762 25.9493 40.4215 25.9297 40.3707 25.9141C40.3512 25.9141 40.3355 25.8946 40.3121 25.8907C36.5035 25.3164 34.6324 23.1993 34.4293 19.2305C34.4215 19.1875 34.4098 19.1445 34.3941 19.1016C34.3824 19.0234 34.3629 18.9492 34.3316 18.875C34.2691 18.7578 34.191 18.6484 34.0973 18.5508C33.9996 18.4727 33.8941 18.4023 33.7848 18.3477C33.7262 18.3281 33.6676 18.3125 33.609 18.3047C33.5582 18.2891 33.5113 18.2773 33.4605 18.2656C33.441 18.2656 33.4254 18.2734 33.4098 18.2734C33.3902 18.2734 33.3746 18.2656 33.359 18.2656C33.3082 18.2773 33.2613 18.2891 33.2145 18.3047C33.152 18.3125 33.0855 18.3281 33.027 18.3516C32.9566 18.3828 32.8902 18.4258 32.8277 18.4727C32.7887 18.5 32.7496 18.5273 32.7145 18.5586C32.6559 18.6172 32.6051 18.6836 32.5621 18.7539C32.5348 18.793 32.5074 18.8359 32.484 18.8828C32.4566 18.9531 32.441 19.0234 32.4293 19.0976C32.4137 19.1445 32.402 19.1875 32.3941 19.2344C32.1949 23.2071 30.3238 25.3242 26.5113 25.8946C26.4879 25.8946 26.4723 25.9102 26.4528 25.918C26.3981 25.9336 26.3434 25.9532 26.2965 25.9766C26.1676 26.0118 26.0504 26.0821 25.9684 26.1875C25.9137 26.2344 25.8629 26.2852 25.8239 26.3438C25.7926 26.3946 25.7653 26.4493 25.7457 26.5079C25.7145 26.5704 25.6871 26.6368 25.6715 26.7071C25.6715 26.7227 25.6559 26.7383 25.652 26.7539C25.652 26.8047 25.6559 26.8555 25.6598 26.9063C25.6559 26.9571 25.652 27.0078 25.652 27.0586C25.652 27.0782 25.6676 27.0899 25.6715 27.1094C25.6871 27.1641 25.7028 27.2149 25.7262 27.2657C25.7496 27.3321 25.7809 27.3985 25.816 27.461C25.8473 27.5039 25.8824 27.543 25.9176 27.5821C25.9645 27.6328 26.0192 27.6836 26.0738 27.7266C26.1207 27.7578 26.1637 27.7813 26.2145 27.8047C26.2809 27.8399 26.3512 27.8633 26.4215 27.8828C26.4527 27.8906 26.4801 27.9102 26.5113 27.9141C30.3199 28.4883 32.191 30.6055 32.3941 34.5782C32.402 34.6329 32.4137 34.6837 32.4332 34.7344C32.441 34.7969 32.4566 34.8555 32.4762 34.9141C32.5074 34.9766 32.5426 35.0352 32.5816 35.0899C32.6129 35.1407 32.6441 35.1876 32.6832 35.2344C32.734 35.2813 32.7887 35.3243 32.8473 35.3594C32.8941 35.3946 32.941 35.4297 32.9957 35.4571C33.066 35.4844 33.1363 35.504 33.2105 35.5118C33.2574 35.5313 33.3043 35.543 33.3551 35.5508H33.4566C33.5074 35.543 33.5543 35.5313 33.6012 35.5118C33.7379 35.504 33.8629 35.4493 33.9644 35.3633C34.023 35.3282 34.0777 35.2852 34.1285 35.2383C34.1676 35.1954 34.1988 35.1446 34.2301 35.0938C34.2691 35.0391 34.3004 34.9805 34.3277 34.9219C34.3473 34.8633 34.3629 34.8008 34.3746 34.7383C34.3902 34.6876 34.4058 34.6368 34.4137 34.586C34.6129 30.6133 36.484 28.4962 40.2965 27.9219C40.3277 27.9219 40.355 27.8985 40.3863 27.8907V27.8867C40.4566 27.8711 40.5269 27.8438 40.5933 27.8125C40.6402 27.7891 40.6871 27.7617 40.73 27.7305C40.7886 27.6875 40.8394 27.6407 40.8902 27.586C40.9254 27.5469 40.9605 27.5078 40.9879 27.4649C41.0269 27.4024 41.0582 27.3399 41.0816 27.2696C41.1051 27.2227 41.1207 27.168 41.1363 27.1172C41.1363 27.0977 41.1519 27.086 41.1558 27.0664L41.1519 27.0625C41.1558 27.0118 41.1519 26.961 41.1441 26.9102C41.1519 26.8594 41.1558 26.8086 41.1519 26.7579C41.1676 26.7344 41.1558 26.7227 41.1519 26.7071ZM33.4136 30.3399C32.7027 28.8555 31.523 27.6485 30.0581 26.9063C31.5229 26.1641 32.7026 24.9571 33.4136 23.4766C34.1246 24.9571 35.3042 26.1641 36.7691 26.9063C35.3043 27.6485 34.1246 28.8555 33.4136 30.3399Z" fill="black"/>
</svg>
