<svg width="55" height="59" viewBox="0 0 55 59" fill="none" xmlns="http://www.w3.org/2000/svg">
<path d="M3.89998 0.600098H7.79998C9.59998 0.600098 11.1 2.1001 11.1 3.9001V32.2001C11.1 34.0001 9.59998 35.5001 7.79998 35.5001H3.89998C2.09998 35.5001 0.599976 34.0001 0.599976 32.2001V3.8001C0.599976 2.0001 2.09998 0.600098 3.89998 0.600098Z" fill="black"/>
<path d="M38.2001 33.5H22.3V37.4H38.2001V33.5Z" fill="black"/>
<path d="M22.3 39.3999V50.5999C22.3 52.0999 23.5 53.2999 25 53.2999H35.5C37 53.2999 38.2001 52.0999 38.2001 50.5999V39.3999H22.3ZM38.2001 49.1999H33V47.1999H38.2001V49.1999ZM38.2001 43.4999H33V41.4999H38.2001V43.4999Z" fill="black"/>
<path d="M33.9 55.2998H26.7V58.9998H33.9V55.2998Z" fill="black"/>
<path d="M17.6 10.4998L13.1 9.2998V26.6998L17.6 25.4998V10.4998Z" fill="black"/>
<path d="M50 22.8999H30.1C27.7 22.8999 25.8 24.7999 25.8 27.1999C25.8 29.5999 27.7 31.4999 30.1 31.4999H50C52.4 31.4999 54.3 29.5999 54.3 27.1999C54.3 24.7999 52.4 22.8999 50 22.8999ZM34.9001 28.7999H32.9001V25.5999H34.9001V28.7999Z" fill="black"/>
<path d="M35.2001 4.5H25.3V11H35.2001V4.5Z" fill="black"/>
<path d="M37.4 4.5H37.2V12C37.2 12.6 36.8 13 36.2 13H24.3C23.7 13 23.3 12.6 23.3 12V4.5H23.1C21.2 4.5 19.6 6.1 19.6 8V31.6H25.4C23 29.1 23.1 25.1 25.7 22.7C26.9 21.6 28.4 21 30 21H40.8V8C40.9 6 39.3 4.5 37.4 4.5Z" fill="black"/>
</svg>
