<svg width="46" height="64" viewBox="0 0 46 64" fill="none" xmlns="http://www.w3.org/2000/svg">
<path d="M45.3955 4.53389C45.0301 3.17029 44.1167 1.99477 42.9019 1.31582C40.5124 -0.0476761 37.4037 0.643229 35.8215 2.89539L20.8953 24.1799C19.2225 24.3647 17.6417 25.2815 16.6259 26.7338L12.0172 33.2648C10.631 33.7524 9.31488 34.5208 8.11815 35.5696C4.59529 38.6568 2.70232 43.6722 3.41072 48.0535C4.20762 52.9889 4.53821 57.0193 1.00132 60.1901C0.6568 60.4967 0.501794 60.9669 0.593208 61.4149C0.683997 61.8606 0.99636 62.2107 1.4226 62.3547C6.58481 64.1037 11.2224 64.1083 15.2108 63.0396C21.2381 61.4246 25.7826 57.3535 28.3915 53.1453C29.8704 50.7607 30.7089 47.5303 30.2296 44.3044L33.8005 36.7552C34.5517 35.1698 34.539 33.3941 33.8744 31.8653L45.0694 8.18213C45.5993 7.03312 45.7183 5.73849 45.3955 4.53389ZM26.9367 52.2595C23.3359 58.066 16.3774 63.1477 6.89209 61.9092C7.49552 61.8017 8.09182 61.6678 8.67683 61.511C14.4566 59.9623 19.324 56.0862 22.3577 50.4058C22.5793 49.9901 22.4187 49.478 22.0035 49.2587C21.5889 49.0418 21.0715 49.1985 20.8475 49.6149C17.1793 56.4904 10.5786 60.451 3.02118 60.5113C6.20595 56.9389 5.87459 52.6147 5.09074 47.7763C4.47382 43.9495 6.14059 39.5572 9.23962 36.8395C11.8888 34.521 15.2004 33.7808 18.5563 34.7614C21.5525 35.6318 25.0017 37.8528 26.5848 39.9253C29.639 43.915 28.9605 48.9957 26.9367 52.2595ZM32.2508 36.0394L29.5303 41.7908C29.1443 40.7968 28.6537 39.8205 27.9483 38.8966C25.9033 36.2168 21.9194 33.9713 19.0435 33.1332C17.5001 32.6843 15.9687 32.5524 14.4893 32.7112L18.0229 27.7026C18.9604 26.3566 20.5558 25.6398 22.079 25.8772C22.5114 25.9473 22.9594 26.0364 23.4167 26.1799C26.4329 27.0372 29.9872 29.3203 31.7042 31.4938C31.7155 31.5166 31.9022 31.7765 31.9146 31.7938C32.7907 33.0051 32.9194 34.6311 32.2508 36.0394ZM43.5173 7.46716L32.7902 30.1676C30.6781 27.7226 27.0886 25.4541 23.9186 24.5553C23.5721 24.4467 23.2233 24.3878 22.8749 24.3211L37.222 3.86538C38.2994 2.33208 40.4175 1.85747 42.0554 2.79492C42.8813 3.25531 43.5001 4.05012 43.7487 4.97767C43.9689 5.80954 43.8899 6.66992 43.518 7.46678L43.5173 7.46716Z" fill="#171717"/>
</svg>
