<svg width="208" height="208" viewBox="0 0 208 208" fill="none" xmlns="http://www.w3.org/2000/svg">
<path d="M68.1439 133.376C68.1439 132.944 68.1439 132.512 68.5759 132.512C69.0079 132.08 69.4399 132.08 69.8719 132.08C72.8959 129.92 75.4879 127.328 78.0799 125.168C73.3279 119.552 70.3039 112.208 70.3039 104C70.3039 103.568 70.3039 102.704 70.3039 102.272C66.8479 101.84 63.3919 101.84 59.9359 101.408C59.9359 102.272 59.0719 102.704 58.6399 102.704C57.7759 102.704 57.3439 102.272 56.9119 101.408C55.6159 101.408 53.8879 101.408 52.5919 100.976C52.5919 101.84 52.5919 103.136 52.5919 104C52.5919 116.528 56.9119 127.76 64.2559 136.4C65.9839 135.536 66.8479 134.672 68.1439 133.376ZM68.1439 120.416C69.0079 119.984 69.8719 120.416 70.3039 121.28C70.7359 122.144 70.3039 123.008 69.4399 123.44C68.5759 123.872 67.7119 123.44 67.2799 122.576C66.8479 121.712 67.2799 120.848 68.1439 120.416ZM61.6639 119.552C60.7999 119.984 59.9359 119.552 59.5039 118.688C59.0719 117.824 59.5039 116.96 60.3679 116.528C61.2319 116.096 62.0959 116.528 62.5279 117.392C62.9599 118.688 62.5279 119.552 61.6639 119.552ZM62.9599 107.024C62.9599 106.16 63.8239 105.296 64.6879 105.296C65.5519 105.296 66.4159 106.16 66.4159 107.024C66.4159 107.888 65.5519 108.752 64.6879 108.752C63.3919 108.752 62.9599 107.888 62.9599 107.024Z" fill="black"/>
<path d="M122.144 93.1999C119.12 88.4479 114.368 84.5599 108.752 83.2639C108.32 83.2639 107.888 83.2639 107.456 82.8319C106.16 82.8319 105.296 82.3999 104 82.3999C104 82.3999 104 82.3999 103.568 82.3999C102.272 82.3999 101.408 82.3999 100.112 82.8319C99.6799 82.8319 99.2479 82.8319 98.8159 83.2639C93.6319 84.5599 89.3119 87.5839 86.2879 91.9039V92.3359C85.8559 93.1999 84.9919 94.4959 84.5599 95.3599C84.5599 95.7919 84.1279 96.2239 84.1279 96.2239C83.6959 97.0879 83.2639 97.9519 83.2639 99.2479V99.6799C82.8319 100.976 82.8319 102.272 82.8319 103.568C82.8319 109.184 84.9919 114.368 88.8799 118.256L89.3119 118.688C90.1759 119.552 91.0399 120.416 91.9039 120.848C91.9039 120.848 92.3359 120.848 92.3359 121.28C93.1999 121.712 94.0639 122.144 94.9279 122.576C95.3599 122.576 95.3599 123.008 95.7919 123.008C98.3839 123.872 100.976 124.736 103.568 124.736C106.16 124.736 108.752 124.304 110.912 123.44H111.344C111.776 123.44 112.208 123.008 112.64 123.008C113.072 122.576 113.936 122.576 114.368 122.144C114.8 121.712 115.232 121.712 115.664 121.28C116.528 120.848 117.392 119.984 118.256 119.12L118.688 118.688C122.576 114.8 124.736 109.616 124.736 104C124.736 103.136 124.736 102.272 124.304 101.408C124.304 100.976 124.304 100.544 124.304 100.112C124.304 99.2479 123.872 98.3839 123.44 97.0879C123.44 96.6559 123.008 96.2239 123.008 96.2239C122.576 95.7919 122.576 94.9279 122.144 94.4959C122.576 94.0639 122.576 93.6319 122.144 93.1999Z" fill="black"/>
<path d="M104 137.696C99.6799 137.696 95.7919 136.832 91.9039 135.536C89.7439 140.72 87.584 145.904 85.424 151.952C91.0399 154.112 97.5199 155.408 104 155.408C110.48 155.408 116.96 154.112 122.576 151.952C120.416 145.904 118.256 140.72 116.096 135.536C112.208 136.832 108.32 137.696 104 137.696ZM93.1999 142.448C92.7679 143.312 91.9039 143.744 91.0399 143.312C90.1759 142.88 89.7439 142.016 90.1759 141.152C90.6079 140.288 91.4719 139.856 92.3359 140.288C93.1999 140.72 93.6319 141.584 93.1999 142.448ZM100.544 150.656C99.6799 150.656 98.8159 149.792 98.8159 148.928C98.8159 148.064 99.6799 147.2 100.544 147.2C101.408 147.2 102.272 148.064 102.272 148.928C102.272 150.224 101.408 150.656 100.544 150.656ZM107.024 145.04C106.16 145.04 105.296 144.176 105.296 143.312C105.296 142.448 106.16 141.584 107.024 141.584C107.888 141.584 108.752 142.448 108.752 143.312C108.752 144.608 107.888 145.04 107.024 145.04ZM117.824 145.472C118.688 145.04 119.552 145.472 119.984 146.336C120.416 147.2 119.984 148.064 119.12 148.496C118.256 148.928 117.392 148.496 116.96 147.632C116.528 146.768 116.96 145.904 117.824 145.472Z" fill="black"/>
<path d="M145.04 101.408C144.608 101.84 144.176 102.272 143.744 102.272C143.312 102.272 142.88 101.84 142.448 101.408C140.72 101.408 138.992 101.84 137.696 101.84C137.696 102.272 137.696 103.136 137.696 103.568C137.696 111.776 134.672 119.12 129.92 124.736C131.216 126.032 132.512 126.896 133.808 128.192C134.24 127.76 135.104 127.76 135.536 128.192C135.968 128.624 135.968 129.056 135.968 129.92C138.56 132.08 141.152 134.24 143.744 136.4C151.088 127.76 155.408 116.096 155.408 104C155.408 103.136 155.408 101.84 155.408 100.976C151.52 100.976 148.496 101.408 145.04 101.408ZM141.152 117.824C140.288 117.392 139.856 116.528 140.288 115.664C140.72 114.8 141.584 114.368 142.448 114.8C143.312 115.232 143.744 116.096 143.312 116.96C142.88 117.824 142.016 118.256 141.152 117.824ZM145.904 124.736C145.472 125.6 144.608 126.032 143.744 125.6C143.312 125.6 142.88 124.304 142.88 123.872C143.312 123.008 144.176 122.576 145.04 123.008C145.904 123.008 146.336 124.304 145.904 124.736ZM149.36 108.752C148.496 108.752 147.632 107.888 147.632 107.024C147.632 106.16 148.496 105.296 149.36 105.296C150.224 105.296 151.088 106.16 151.088 107.024C150.656 108.32 150.224 108.752 149.36 108.752Z" fill="black"/>
<path d="M75.92 142.88C75.488 142.448 74.192 142.448 71.6 143.744C72.896 145.04 74.624 145.904 75.92 147.2C76.352 144.176 76.352 142.88 75.92 142.88Z" fill="black"/>
<path d="M81.104 100.112C81.104 99.2481 81.5359 98.3841 81.5359 97.9521C81.5359 97.0881 81.9679 96.6561 81.9679 95.7921C82.3999 94.9281 82.8319 94.0641 82.8319 93.2001C82.8319 92.7681 83.264 92.7681 83.264 92.3361C73.328 87.1521 62.5279 80.2401 50.4319 72.0321L47.8399 69.8721C47.8399 70.3041 47.4079 70.3041 47.4079 70.7361C46.5439 72.0321 46.1119 73.3281 45.2479 74.6241C45.2479 75.0561 44.8159 75.0561 44.8159 75.4881C53.0239 79.8081 62.0959 85.8561 60.3679 90.1761C59.0719 94.9281 46.9759 94.0641 39.1999 92.7681C39.1999 93.2001 39.1999 93.2001 39.1999 93.6321C38.7679 94.9281 38.7679 96.6561 38.7679 97.9521C38.7679 98.3841 38.7679 98.3841 38.7679 98.8161H42.6559C57.3439 99.2481 70.304 100.112 81.104 101.84C81.104 100.976 81.104 100.544 81.104 100.112Z" fill="black"/>
<path d="M56.48 85.4238C55.616 87.1518 55.184 88.8798 54.752 90.6078C57.344 90.1758 58.64 89.3118 58.64 88.8798C58.64 88.4478 58.208 87.1518 56.48 85.4238Z" fill="black"/>
<path d="M94.064 125.168C92.768 124.736 91.9039 123.872 90.6079 123.008L90.1759 122.576C89.3119 121.712 88.448 120.848 87.584 119.984C79.808 127.76 69.8719 135.968 58.2079 144.608L54.3199 147.2L54.7519 147.632C55.6159 148.496 56.4799 149.792 57.7759 150.656L58.2079 151.088C65.1199 144.608 73.3279 138.128 77.2159 140.72C81.1039 143.312 76.3519 154.976 73.3279 161.888C73.7599 161.888 73.7599 162.32 74.1919 162.32C75.4879 163.184 76.7839 163.616 78.0799 164.048C78.5119 164.048 78.512 164.048 78.944 164.48L80.2399 160.592C84.1279 147.2 89.312 135.104 94.064 125.168Z" fill="black"/>
<path d="M131.648 147.2C133.376 146.336 134.672 145.04 135.968 143.744C133.808 142.448 132.512 142.448 131.648 142.88C131.648 143.312 131.216 144.608 131.648 147.2Z" fill="black"/>
<path d="M120.848 119.984C120.416 120.416 120.416 120.416 120.416 120.416C119.984 120.848 119.12 121.28 118.688 121.712C118.256 122.144 117.824 122.576 117.392 123.008C116.528 123.44 115.664 124.304 114.368 124.736C113.936 124.736 113.936 125.168 113.504 125.168C118.256 135.104 123.008 147.2 127.76 161.024L129.056 164.912C129.488 164.912 129.488 164.912 129.92 164.48C131.216 164.048 132.512 163.184 133.808 162.752C134.24 162.752 134.24 162.32 134.672 162.32C131.216 155.408 126.896 143.744 130.784 141.152C134.672 138.56 142.88 145.04 149.792 151.52L150.224 151.088C151.088 150.224 151.952 148.928 153.248 148.064C153.248 147.632 153.68 147.632 153.68 147.2L150.656 145.04C138.992 135.968 129.056 127.76 120.848 119.984Z" fill="black"/>
<path d="M112.64 71.5998C120.848 73.7598 127.76 78.9438 132.08 85.8558C136.832 83.2638 142.016 79.8078 147.2 76.3518C140.288 65.5518 129.488 57.3438 116.96 54.3198C115.232 60.3678 113.504 66.4158 112.64 71.5998ZM137.264 73.3278C137.696 72.8958 138.992 72.8958 139.424 73.3278C139.856 73.7598 139.856 75.0558 139.424 75.4878C138.992 75.9198 137.696 75.9198 137.264 75.4878C136.4 75.0558 136.4 73.7598 137.264 73.3278ZM128.624 72.4638C129.056 72.0318 130.352 72.0318 130.784 72.4638C131.216 72.8958 131.216 74.1918 130.784 74.6238C130.352 75.0558 129.056 75.0558 128.624 74.6238C128.192 74.1918 128.192 73.3278 128.624 72.4638ZM123.008 62.9598C123.44 62.0958 124.304 61.6638 125.168 62.0958C126.032 62.5278 126.464 63.3918 126.032 64.2558C125.6 64.6878 124.304 65.1198 123.872 65.1198C123.008 64.6878 122.576 63.8238 123.008 62.9598ZM117.824 66.8478C117.392 67.7118 116.528 68.1438 115.664 67.7118C114.8 67.2798 114.368 66.4158 114.8 65.5518C115.232 64.6878 116.096 64.2558 116.96 64.6878C117.824 65.1198 118.256 65.9838 117.824 66.8478Z" fill="black"/>
<path d="M95.3599 71.5998C94.0639 65.9838 92.7679 60.3678 91.0399 54.3198C78.5119 57.7758 67.7119 65.5518 60.7999 76.3518C65.9839 79.8078 71.1679 82.8318 75.9199 85.8558C80.2399 78.9438 87.1519 73.7598 95.3599 71.5998ZM89.3119 59.5038C90.1759 59.0718 91.0399 59.5038 91.4719 60.3678C91.9039 61.2318 91.4719 62.0958 90.6079 62.5278C89.7439 62.9598 88.8799 62.5278 88.4479 61.6638C88.0159 60.7998 88.4479 59.9358 89.3119 59.5038ZM85.4239 67.2798C86.2879 66.8478 87.1519 67.2798 87.5839 68.1438C88.0159 69.0078 87.5839 69.8718 86.7199 70.3038C85.8559 70.7358 84.9919 70.3038 84.5599 69.4398C84.1279 68.5758 84.5599 67.2798 85.4239 67.2798ZM75.0559 79.3758C74.6239 79.8078 73.3279 79.8078 72.8959 79.3758C72.4639 78.9438 72.4639 77.6478 72.8959 77.2158C73.3279 76.7838 74.6239 76.7838 75.0559 77.2158C75.4879 77.6478 75.4879 78.5118 75.0559 79.3758ZM73.3279 70.7358C72.8959 70.3038 72.8959 69.0078 73.3279 68.5758C73.7599 68.1438 75.0559 68.1438 75.4879 68.5758C75.9199 69.0078 75.9199 70.3038 75.4879 70.7358C75.0559 71.5998 73.7599 71.5998 73.3279 70.7358Z" fill="black"/>
<path d="M99.6799 81.1036C100.544 81.1036 101.408 81.1036 101.84 80.6716C102.704 80.6716 103.136 80.6716 104 80.6716C105.728 80.6716 107.024 80.6716 108.32 81.1036C110.048 70.3036 113.072 57.7756 117.824 43.5196L119.12 39.6316C118.256 39.6316 117.392 39.1996 116.528 39.1996C115.664 39.1996 114.368 38.7676 113.504 38.7676C111.776 47.8396 108.752 58.2076 104.432 58.2076C99.6799 58.2076 97.0879 47.8396 95.3599 38.7676C94.4959 38.7676 93.1999 39.1996 92.3359 39.1996H91.9039C91.0399 39.1996 90.1759 39.6316 89.7439 39.6316L91.0399 43.5196C94.9279 57.7756 97.9519 70.3036 99.6799 81.1036Z" fill="black"/>
<path d="M149.792 89.312C149.792 89.744 151.088 90.608 153.68 91.04C153.248 89.312 152.816 87.584 151.952 85.856C149.792 87.584 149.36 88.88 149.792 89.312Z" fill="black"/>
<path d="M104 56.0479C104.432 56.0479 105.728 55.1839 107.024 53.0239C106.16 53.0239 105.296 53.0239 104 53.0239C103.136 53.0239 102.272 53.0239 100.976 53.0239C102.272 55.1839 103.568 56.0479 104 56.0479Z" fill="black"/>
<path d="M124.304 92.7679C125.168 94.0639 125.6 95.3599 126.032 96.6559V97.0879C126.464 98.3839 126.464 99.2479 126.896 100.544C126.896 100.544 126.896 100.544 126.896 100.976C138.128 99.2479 150.656 98.3839 165.344 98.3839H169.232C169.232 97.9519 169.232 97.9519 169.232 97.5199C169.232 96.2239 168.8 94.4959 168.8 93.1999C168.8 92.7679 168.8 92.7679 168.8 92.3359C161.024 93.1999 148.928 94.0639 147.632 89.7439C146.336 85.4239 154.976 79.3759 163.184 75.0559C163.184 74.6239 162.752 74.6239 162.752 74.1919C162.32 72.8959 161.456 71.5999 160.592 70.3039C160.592 69.8719 160.16 69.8719 160.16 69.4399L156.704 71.5999C145.04 80.6719 134.24 87.5839 124.304 92.7679Z" fill="black"/>
<path d="M104 25.8076C60.8 25.8076 25.808 60.7996 25.808 104C25.808 124.736 34.016 144.608 48.704 159.296C63.392 173.984 83.264 182.192 104 182.192C147.2 182.192 182.192 147.2 182.192 104C182.624 60.7996 147.2 25.8076 104 25.8076ZM161.024 67.2796L161.456 68.1436C162.752 70.3036 164.048 72.8956 165.344 75.4876L165.776 76.3516C167.936 81.1036 169.232 85.4236 170.528 90.1756V91.0396C170.96 93.6316 171.392 96.2236 171.392 99.2476V100.544C171.392 101.408 171.392 102.704 171.392 104C171.392 119.552 165.776 134.672 156.272 146.768L155.408 147.632C153.248 149.792 151.52 151.952 149.792 153.68L148.928 154.544C145.472 158 141.152 160.592 136.832 163.184L135.968 163.616C134.672 164.048 133.808 164.912 132.512 165.344C131.216 165.776 129.92 166.64 128.624 167.072L127.76 167.504C119.984 170.528 111.776 171.824 103.568 171.824C94.928 171.824 86.72 170.096 79.376 167.072L78.512 166.64C75.92 165.776 73.328 164.48 71.168 163.184L70.304 162.752C65.984 160.16 62.096 157.568 58.208 154.112L57.344 153.248C56.48 152.384 55.184 151.088 54.32 150.224C53.456 149.36 52.592 148.064 51.728 147.2L50.864 146.336C40.928 134.24 35.744 119.12 35.744 103.568C35.744 102.272 35.744 100.976 35.744 100.112V99.2476C35.744 99.2476 35.744 99.2476 35.744 98.8156C35.744 96.2236 36.176 93.1996 36.608 90.6076V89.7436C37.472 84.9916 39.2 80.2396 41.36 75.9196L41.792 75.0556C43.088 72.4636 44.384 70.3036 45.68 67.7116L46.112 66.8476C55.184 52.5916 69.44 42.6556 85.424 38.3356L86.72 37.9036C89.312 37.4716 91.904 36.6076 94.928 36.1756H95.792C100.544 35.7436 105.728 35.7436 110.48 36.1756H111.344C114.368 36.6076 116.96 37.0396 119.552 37.9036L120.848 38.3356C138.128 42.6556 151.952 53.0236 161.024 67.2796Z" fill="black"/>
<path d="M205.088 106.16L207.68 104C207.68 98.8158 207.248 94.0638 206.384 88.8798L204.224 91.9038L203.792 88.8798L205.952 85.8558C205.088 80.6718 203.792 75.9198 202.064 71.1678L200.768 74.1918L199.904 71.1678L201.2 68.1438C199.472 63.3918 197.312 59.0718 195.152 54.3198L194.288 57.7758L192.56 55.1838L193.424 51.7278C190.832 47.4078 188.24 43.0878 184.784 39.1998L184.352 42.6558L182.192 40.4958L182.624 37.0398C179.6 33.1518 175.712 29.6958 172.256 26.2398L173.12 30.1278L170.96 27.9678L170.528 24.5118C166.64 21.4878 162.752 18.4638 158.432 15.8718L159.296 19.3278L156.704 17.5998L155.84 14.1438C151.52 11.5518 147.2 9.39182 142.448 7.66382L143.744 10.6878L140.72 9.82382L139.424 6.79982C134.672 4.63982 129.92 3.34382 124.736 2.47982L126.896 5.50382L123.872 4.63982L121.712 1.61582C116.96 1.18382 111.776 0.319824 107.024 0.319824L109.616 2.91182H106.592L104 0.319824C98.8159 0.319824 94.064 0.751824 88.8799 1.61582L91.904 3.77582L88.8799 4.20782L85.8559 2.04782C80.6719 2.91182 75.9199 4.20782 71.1679 5.93582L74.192 7.23182L71.1679 8.09582L68.144 6.79982C63.392 8.52782 59.0719 10.6878 54.3199 12.8478L57.7759 13.7118L55.1839 15.4398L52.1599 14.1438C47.8399 16.7358 43.5199 19.3278 39.6319 22.7838L43.0879 23.2158L40.9279 25.3758L37.0399 24.5118C33.5839 27.9678 29.6959 31.4238 26.6719 35.3118L30.1279 34.8798L27.9679 37.0398L24.5119 37.4718C21.4879 41.3598 18.4639 45.2478 15.8719 49.5678L19.3279 48.7038L17.5999 51.2958L14.1439 52.1598C11.5519 56.4798 9.39195 60.7998 7.66395 65.5518L10.6879 64.2558L9.82395 67.2798L6.79995 68.5758C4.63995 73.3278 3.34395 78.0798 2.47995 83.2638L5.50395 81.1038L4.63995 84.1278L1.61595 86.2878C1.18395 91.0398 0.319946 96.2238 0.319946 100.976L2.91195 98.3838V101.408L0.319946 104C0.319946 109.184 0.751946 113.936 1.61595 119.12L3.77595 116.096L4.20795 119.12L2.04795 122.144C2.91195 127.328 4.20795 132.08 5.93595 136.832L7.23195 133.808L8.09595 136.832L6.79995 139.856C8.52795 144.608 10.6879 148.928 12.8479 153.68L13.7119 150.224L15.4399 152.816L14.1439 155.84C16.7359 160.16 19.3279 164.48 22.7839 168.368L23.2159 164.912L25.3759 167.072L24.9439 170.528C27.9679 174.416 31.8559 177.872 35.3119 181.328L34.8799 177.872L37.0399 180.032L37.4719 183.488C41.3599 186.512 45.2479 189.536 49.5679 192.128L48.7039 188.672L51.2959 190.4L52.1599 193.856C56.4799 196.448 60.8 198.608 65.552 200.336L64.2559 197.312L67.2799 198.176L68.5759 201.2C73.3279 202.928 78.08 204.224 82.832 205.088L80.672 202.064L83.6959 202.496L85.8559 205.52C90.6079 206.384 95.792 206.816 100.544 206.816L97.952 204.224H100.976L104 207.68C109.184 207.68 113.936 207.248 119.12 206.384L116.096 204.224L119.12 203.792L122.144 205.952C127.328 205.088 132.08 203.792 136.832 202.064L133.808 200.768L136.832 199.904L139.856 201.2C144.608 199.472 148.928 197.312 153.68 195.152L150.224 194.288L152.816 192.56L156.272 193.424C160.592 190.832 164.912 188.24 168.8 184.784L165.344 184.352L167.504 182.192L170.96 182.624C174.848 179.6 178.304 175.712 181.76 172.256L177.872 173.12L180.032 170.96L183.488 170.528C186.512 166.64 189.536 162.752 192.128 158.432L188.672 159.296L190.4 156.704L193.856 155.84C196.448 151.52 198.608 147.2 200.336 142.448L197.312 143.744L198.176 140.72L201.2 139.424C202.928 134.672 204.224 129.92 205.088 125.168L202.064 127.328L202.496 124.304L205.52 122.144C206.384 117.392 206.816 112.208 206.816 107.456L204.224 110.048V106.16H205.088ZM104 184.352C82.3999 184.352 62.0959 175.712 46.9759 160.592C31.8559 145.472 23.6479 125.168 23.6479 104C23.6479 59.5038 59.5039 23.6478 104 23.6478C148.496 23.6478 184.352 59.9358 184.352 104.432C184.352 148.496 148.496 184.352 104 184.352Z" fill="black"/>
</svg>
