<svg width="100" height="320" viewBox="0 0 100 320" fill="none" xmlns="http://www.w3.org/2000/svg">
<path d="M99.9826 31.832C71.9327 132.662 83.4948 206.026 83.8948 208.467L83.9098 208.579C84.1049 210.663 82.9947 209.864 82.9947 209.864L57.5502 194.992C55.6849 193.899 54.2171 193.508 54.7697 196.17C54.7697 196.17 58.3303 219.772 65.1115 245.084C67.3719 253.521 69.9924 262.149 72.9579 270.156C73.5455 271.594 72.8154 272.335 71.3351 271.822L71.2201 271.788L70.44 271.589L70.2974 271.545L51.2291 264.923C50.8015 264.775 50.394 265.188 50.5665 265.599C57.4977 282.163 57.0776 283.12 71.7677 314.272L73.3505 318.134C74.1381 320.053 73.3705 320.576 71.6502 319.293C71.6502 319.293 68.2921 316.789 67.1469 315.771C66.0017 314.751 29.3103 285.358 10.2594 234.328L7.25642 225.25C6.6063 223.285 7.36394 222.857 8.93671 224.293C8.93671 224.293 13.26 228.24 14.8903 229.763C16.328 231.104 21.0688 234.974 24.6295 237.051C25.0645 237.304 25.5821 236.871 25.3846 236.415C20.9838 226.163 -6.09342 159.497 1.25537 87.5256L1.26787 87.4212L2.37056 80.4373C2.69312 78.4041 3.55827 78.3239 4.2934 80.2624L7.36643 88.354C8.10156 90.2925 8.59415 90.1977 8.45663 88.1475C8.45663 88.1475 5.87367 49.2929 30.8105 0.284269C30.9381 0.0340644 31.2481 -0.07039 31.5082 0.0486395L99.6976 31.2368C99.9276 31.3413 100.048 31.5939 99.9801 31.8344L99.9826 31.832Z" fill="url(#paint0_linear_183_14)"/>
<defs>
<linearGradient id="paint0_linear_183_14" x1="50.0014" y1="319.998" x2="50.0014" y2="4.57723e-05" gradientUnits="userSpaceOnUse">
<stop stop-color="#FFBE0B"/>
<stop offset="0.37" stop-color="#FF7200"/>
<stop offset="0.77" stop-color="#D6006E"/>
</linearGradient>
</defs>
</svg>
